<?xml version="1.0" encoding="iso-8859-1"?>
<!-- Generator: Adobe Illustrator 19.0.0, SVG Export Plug-In . SVG Version: 6.00 Build 0)  -->
<svg version="1.1" id="Capa_1" xmlns="http://www.w3.org/2000/svg" xmlns:xlink="http://www.w3.org/1999/xlink" x="0px" y="0px"
	 viewBox="0 0 512.001 512.001" style="enable-background:new 0 0 512.001 512.001;" xml:space="preserve">
<g>
	<path style="fill:#006a64;" d="M294.493,71.523C238.508,28.052,168.642,1.608,92.659,0.003c-4.033-0.086-7.351,3.169-7.351,7.203
		v47.44c0,3.91,3.124,7.09,7.032,7.187c50.069,1.236,96.868,15.646,137.074,39.88L294.493,71.523z"/>
	<path style="fill:#006a64;" d="M294.493,71.523h-18.914c73.139,62.455,109.901,160.077,109.901,269.785
		c0,94.27-52.279,170.692-129.479,170.692c94.27,0,170.692-76.422,170.692-170.692C426.693,231.592,374.924,133.979,294.493,71.523z
		"/>
</g>
<path style="fill:#079992;" d="M426.693,7.206c0-4.036-3.32-7.289-7.355-7.204C234.192,3.916,85.309,155.225,85.308,341.308
	c0,94.27,76.422,170.692,170.692,170.692c77.2,0,139.782-76.422,139.782-170.692c-0.001-97.881-37.466-186.138-97.487-248.386
	c36.496-18.905,77.684-30.012,121.362-31.09c3.909-0.097,7.034-3.276,7.034-7.187V7.206H426.693z M364.872,341.308
	C364.873,401.436,316.129,450.18,256,450.18s-108.872-48.744-108.872-108.872c0.001-90.125,42.659-170.275,108.873-221.399
	C322.217,171.032,364.872,251.184,364.872,341.308z"/>
<g>
</g>
<g>
</g>
<g>
</g>
<g>
</g>
<g>
</g>
<g>
</g>
<g>
</g>
<g>
</g>
<g>
</g>
<g>
</g>
<g>
</g>
<g>
</g>
<g>
</g>
<g>
</g>
<g>
</g>
</svg>
