<svg height="480pt" viewBox="0 -8 480 480" width="480pt" xmlns="http://www.w3.org/2000/svg">
<path d="m424 184c0 36.992188-40.128906 69.078125-98.894531 85.105469-16.027344 58.765625-48.113281 98.894531-85.105469 98.894531 101.621094 0 184-82.378906 184-184zm0 0" fill="#90a4ae"/>
<path d="m325.105469 98.894531c58.765625 16.027344 98.894531 48.113281 98.894531 85.105469 0-101.621094-82.378906-184-184-184 36.992188 0 69.078125 40.128906 85.105469 98.894531zm0 0" fill="#eceff1"/>
<path d="m154.894531 269.105469c-58.765625-16.027344-98.894531-48.113281-98.894531-85.105469 0 101.621094 82.378906 184 184 184-36.992188 0-69.078125-40.128906-85.105469-98.894531zm0 0" fill="#546e7a"/>
<path d="m154.894531 98.894531c16.027344-58.765625 48.113281-98.894531 85.105469-98.894531-101.621094 0-184 82.378906-184 184 0-36.992188 40.128906-69.078125 98.894531-85.105469zm0 0" fill="#90a4ae"/>
<path d="m325.105469 98.894531c-16.027344-58.765625-48.113281-98.894531-85.105469-98.894531v88c28.722656-.136719 57.339844 3.527344 85.105469 10.894531zm0 0" fill="#cfd8dc"/>
<path d="m154.894531 98.894531c27.765625-7.367187 56.382813-11.03125 85.105469-10.894531v-88c-36.992188 0-69.078125 40.128906-85.105469 98.894531zm0 0" fill="#b0bec5"/>
<path d="m154.894531 269.105469c16.027344 58.765625 48.113281 98.894531 85.105469 98.894531v-88c-28.722656.136719-57.339844-3.527344-85.105469-10.894531zm0 0" fill="#607d8b"/>
<path d="m325.105469 269.105469c-27.765625 7.367187-56.382813 11.03125-85.105469 10.894531v88c36.992188 0 69.078125-40.128906 85.105469-98.894531zm0 0" fill="#78909c"/>
<path d="m154.894531 98.894531c-58.765625 16.027344-98.894531 48.113281-98.894531 85.105469h88c-.136719-28.722656 3.527344-57.339844 10.894531-85.105469zm0 0" fill="#78909c"/>
<path d="m154.894531 269.105469c-7.367187-27.765625-11.03125-56.382813-10.894531-85.105469h-88c0 36.992188 40.128906 69.078125 98.894531 85.105469zm0 0" fill="#607d8b"/>
<path d="m325.105469 269.105469c58.765625-16.027344 98.894531-48.113281 98.894531-85.105469h-88c.136719 28.722656-3.527344 57.339844-10.894531 85.105469zm0 0" fill="#b0bec5"/>
<path d="m325.105469 98.894531c7.367187 27.765625 11.03125 56.382813 10.894531 85.105469h88c0-36.992188-40.128906-69.078125-98.894531-85.105469zm0 0" fill="#cfd8dc"/>
<path d="m240 184v96c28.722656.136719 57.339844-3.527344 85.105469-10.894531 7.367187-27.765625 11.03125-56.382813 10.894531-85.105469zm0 0" fill="#90a4ae"/>
<path d="m240 88c-28.722656-.136719-57.339844 3.527344-85.105469 10.894531-7.367187 27.765625-11.03125 56.382813-10.894531 85.105469h96zm0 0" fill="#90a4ae"/>
<path d="m144 184c-.136719 28.722656 3.527344 57.339844 10.894531 85.105469 27.765625 7.367187 56.382813 11.03125 85.105469 10.894531v-96zm0 0" fill="#78909c"/>
<path d="m336 184c.136719-28.722656-3.527344-57.339844-10.894531-85.105469-27.765625-7.367187-56.382813-11.03125-85.105469-10.894531v96zm0 0" fill="#b0bec5"/><g fill="#1c313a">
<path d="m256 432h224v16h-224zm0 0"/>
<path d="m0 432h224v16h-224zm0 0"/>
<path d="m232 368h16v56h-16zm0 0"/></g>
<path d="m264 440c0 13.253906-10.746094 24-24 24s-24-10.746094-24-24 10.746094-24 24-24 24 10.746094 24 24zm0 0" fill="#fbc02d"/></svg>